<svg version="1.1" id="Layer_1" xmlns="http://www.w3.org/2000/svg" xmlns:xlink="http://www.w3.org/1999/xlink" x="0px" y="0px"
	 width="100%" viewBox="0 0 1024 672" enable-background="new 0 0 1024 672" xml:space="preserve">
<path fill="#000000" opacity="1.000000" stroke="none" 
	d="
M471.470001,566.630249 
	C439.732178,556.920166 408.372467,547.346741 377.013123,537.772095 
	C364.439178,533.933044 351.829742,530.205627 339.300781,526.224915 
	C318.290710,519.549683 309.276215,499.216034 318.293518,479.155975 
	C327.716309,458.193878 349.082886,447.223633 372.455933,450.831146 
	C395.279938,454.353943 418.175507,457.413177 441.039948,460.673798 
	C445.892883,461.365875 450.747192,462.048767 456.230255,462.824951 
	C454.437622,457.239838 451.643829,453.088715 449.333069,448.730865 
	C419.607330,392.671417 389.757965,336.677368 360.108978,280.577423 
	C350.413452,262.232147 354.700562,240.626266 369.997986,228.092300 
	C390.468964,211.319382 420.826324,216.928223 433.688995,240.078247 
	C441.373840,253.909317 448.613281,267.987762 456.062592,281.949890 
	C456.838013,283.403290 457.679169,284.821625 458.920013,287.017487 
	C467.904205,276.273468 478.889252,269.850311 492.627899,269.864655 
	C506.103516,269.878754 517.574585,275.075134 527.073242,285.810486 
	C535.765503,274.826080 546.928650,268.304871 560.820374,268.137848 
	C574.459595,267.973877 586.051208,273.435516 594.970703,283.436951 
	C597.363892,283.002716 598.119629,281.350220 599.213318,280.171021 
	C619.465149,258.336456 655.654724,263.645111 668.434753,290.493958 
	C685.543762,326.437347 702.610840,362.402039 719.435303,398.479095 
	C746.551819,456.625488 723.265015,524.942017 666.408325,554.737610 
	C651.507629,562.546265 636.824463,570.786133 621.764893,578.271790 
	C593.717957,592.213135 564.444397,594.681213 534.400574,585.900818 
	C513.473206,579.784729 492.693787,573.162537 471.470001,566.630249 
M615.178894,326.054108 
	C613.724121,331.510040 610.145935,334.673492 604.575684,335.131531 
	C599.042175,335.586517 595.574219,332.334076 593.130554,327.768005 
	C588.415588,318.957886 583.894775,310.039215 578.988647,301.337433 
	C573.510315,291.620636 561.978882,288.281464 552.773926,293.418823 
	C543.334900,298.686768 540.259705,309.664185 545.509644,319.769836 
	C550.040955,328.492157 554.688293,337.154388 559.320129,345.824066 
	C560.942566,348.860870 561.873718,351.975647 560.880981,355.414978 
	C559.422119,360.469574 555.947266,363.424652 550.837097,363.817688 
	C545.513550,364.227142 541.704468,361.532532 539.199341,356.790161 
	C529.709106,338.824493 520.147400,320.896576 510.612579,302.954468 
	C506.746704,295.679901 500.119110,292.391327 492.471649,292.666199 
	C484.407013,292.956055 478.572388,297.640228 475.527954,305.421631 
	C473.117462,311.582550 474.688568,317.137451 477.630554,322.631775 
	C486.752777,339.668091 495.806885,356.740906 504.904907,373.790253 
	C506.580536,376.930328 508.047333,380.105988 506.931091,383.777802 
	C505.573212,388.244232 502.897339,391.465942 498.072235,392.245483 
	C492.071503,393.214935 488.227264,391.194641 485.060577,385.265198 
	C474.233124,364.991211 463.493378,344.670380 452.704132,324.375946 
	C439.960632,300.405701 427.287354,276.397430 414.407928,252.500305 
	C408.628662,241.777176 397.481506,238.309525 387.777466,243.781387 
	C378.115784,249.229340 375.148376,260.265686 380.613129,270.548676 
	C400.627594,308.209595 420.655609,345.863312 440.672821,383.522797 
	C456.076477,412.502655 471.456970,441.494812 486.885864,470.461243 
	C489.237976,474.877136 490.049347,479.248016 487.080719,483.652130 
	C484.133423,488.024658 479.935059,489.157166 474.856384,488.435303 
	C440.129761,483.499176 405.367340,478.808502 370.669434,473.680420 
	C355.998505,471.512177 344.066650,476.986816 338.943695,489.281952 
	C336.129181,496.036743 338.427826,501.454895 345.240143,504.046997 
	C346.794800,504.638550 348.379303,505.159454 349.970276,505.646820 
	C412.506165,524.804016 475.059509,543.904541 537.575256,563.127197 
	C563.989746,571.249268 589.487854,569.465759 614.054382,556.636780 
	C627.935608,549.387756 641.709045,541.932800 655.563660,534.632507 
	C702.024719,510.151184 720.795166,454.811554 698.561462,407.518555 
	C681.912354,372.104462 665.170105,336.734070 648.404541,301.374939 
	C643.409912,290.841370 631.980896,286.511047 622.110046,291.197449 
	C612.359375,295.826782 608.694946,306.952820 613.572205,317.549744 
	C614.716003,320.034882 615.585083,322.466858 615.178894,326.054108 
z"/>
<path fill="#000000" opacity="1.000000" stroke="none" 
	d="
M242.047592,214.660690 
	C242.747879,222.007782 244.652832,223.854965 251.522507,223.864273 
	C276.688751,223.898407 301.855072,223.859329 327.021362,223.876465 
	C333.625763,223.880966 334.106812,224.421021 333.836975,231.016083 
	C333.775726,232.513138 333.538483,234.003922 333.498016,235.500748 
	C333.232239,245.331848 333.242615,245.344833 323.192230,245.348160 
	C298.859253,245.356186 274.526245,245.379898 250.193298,245.341721 
	C232.825439,245.314468 220.679764,233.116241 220.671402,215.745239 
	C220.656479,184.745682 220.644974,153.746094 220.680130,122.746574 
	C220.698013,106.974586 231.420441,95.155235 247.086533,93.578430 
	C257.727753,92.507393 268.410919,92.981346 279.057709,93.211273 
	C300.386353,93.671875 321.711517,93.082932 343.026733,93.270142 
	C411.522064,93.871735 480.016235,93.295990 548.509644,93.622459 
	C565.961121,93.705627 577.808289,105.702972 577.988342,123.990158 
	C578.286865,154.320160 578.268127,184.656693 578.016479,214.987427 
	C577.861450,233.672134 565.645386,245.320526 546.969177,245.342697 
	C521.636230,245.372742 496.301727,245.207001 470.971527,245.473526 
	C465.738556,245.528595 464.524872,243.765747 464.582153,238.877823 
	C464.758392,223.832565 464.580048,223.840912 479.578186,223.848160 
	C501.744537,223.858871 523.910889,223.872894 546.077209,223.843338 
	C553.758118,223.833099 556.648499,220.966461 556.656311,213.316696 
	C556.686279,183.983810 556.690308,154.650864 556.655334,125.317993 
	C556.646851,118.196823 553.357300,114.613976 547.010925,114.633141 
	C523.350220,114.704613 499.689514,114.863617 476.028778,114.878426 
	C404.029846,114.923508 332.030884,114.918030 260.031952,114.924576 
	C257.533142,114.924805 255.030426,114.917580 252.536301,114.785980 
	C245.284058,114.403320 242.118256,117.300751 242.105011,124.708183 
	C242.051682,154.540161 242.055817,184.372223 242.047592,214.660690 
z"/>
</svg>