<svg version="1.1" id="Layer_1" xmlns="http://www.w3.org/2000/svg" xmlns:xlink="http://www.w3.org/1999/xlink" x="0px" y="0px"
	 width="100%" viewBox="0 0 600 480" enable-background="new 0 0 600 480" xml:space="preserve">
<path fill="#FFFFFF" opacity="1.000000" stroke="none" 
	d="
M425.000000,481.000000 
	C283.365997,481.000000 142.232010,481.000000 1.049008,481.000000 
	C1.049008,321.069702 1.049008,161.139420 1.049008,1.104555 
	C200.883957,1.104555 400.768005,1.104555 600.826050,1.104555 
	C600.826050,160.999847 600.826050,320.999908 600.826050,481.000000 
	C542.472778,481.000000 483.986389,481.000000 425.000000,481.000000 
M476.992065,256.302612 
	C476.329224,255.542648 475.666412,254.782669 474.744171,253.381668 
	C473.162628,251.998962 471.682526,250.470108 469.967468,249.279770 
	C468.596069,248.327957 466.793640,246.965561 465.433350,247.205750 
	C459.122894,248.320084 456.889954,254.626266 460.856171,260.042145 
	C459.923584,260.889679 458.959869,261.765503 457.275238,263.123993 
	C456.806366,263.006226 456.213318,263.032166 455.886505,262.749939 
	C443.145935,251.745407 428.321991,245.203766 411.830048,241.241470 
	C411.913940,239.195023 411.997833,237.148575 412.963043,234.995346 
	C421.746216,235.305267 421.740814,235.304977 422.193115,226.749207 
	C422.307068,224.593689 422.471985,222.440918 422.605774,220.286407 
	C423.047729,213.170746 422.421997,212.498962 415.490082,212.202515 
	C407.198151,211.847900 398.909119,211.425674 390.383606,210.339478 
	C386.471924,196.548767 382.560242,182.758041 378.869568,168.264633 
	C381.810394,162.306808 384.996460,156.455765 387.646149,150.371155 
	C395.661011,131.966446 402.252411,113.184731 401.108368,92.631279 
	C399.960266,72.004539 387.073029,58.709953 366.537415,56.869663 
	C347.770996,55.187920 330.493927,60.811409 313.460724,67.734421 
	C315.189270,67.812218 316.843994,67.435112 318.519073,67.209206 
	C326.397064,66.146774 334.298126,64.152428 342.158478,64.294067 
	C358.207825,64.583282 368.097076,74.422379 368.093567,90.453018 
	C368.091675,99.093750 365.610535,107.733940 364.001373,115.588577 
	C362.459747,110.324745 360.935455,105.055756 359.373260,99.798035 
	C354.870300,84.642937 341.520752,77.046455 326.359192,81.296585 
	C267.560425,97.779213 208.780716,114.329994 150.010300,130.913483 
	C134.947189,135.163895 127.437881,148.735336 131.632919,163.933563 
	C136.057327,179.962723 140.549438,195.973434 145.072098,211.975189 
	C153.978271,243.486328 162.925995,274.985718 170.972427,306.823151 
	C163.714935,307.564148 156.422668,309.161102 149.207169,308.868103 
	C134.152039,308.256714 124.281944,298.316376 123.988045,283.270813 
	C123.834328,275.401794 125.669342,267.486450 126.716515,259.606689 
	C126.986526,257.574890 127.673500,255.598541 128.168945,253.596725 
	C119.834427,266.701324 114.425514,294.458405 116.791084,309.403870 
	C119.849632,328.727509 132.072586,340.686066 151.662323,341.636993 
	C161.343155,342.106903 171.143326,340.117950 181.036484,340.113556 
	C185.831055,357.372375 190.625626,374.631165 194.628189,391.733276 
	C185.742416,392.218384 176.821777,392.363434 167.979248,393.270233 
	C155.486130,394.551361 142.959183,395.893677 130.617340,398.145233 
	C119.093666,400.247528 107.732597,403.356934 96.442711,406.530823 
	C94.077011,407.195923 92.334671,410.078430 90.305092,411.939117 
	C92.126465,413.924866 93.734085,416.188263 95.837555,417.807587 
	C97.489708,419.079529 99.707565,419.700806 101.754471,420.362640 
	C121.595055,426.777679 142.254211,428.652039 162.798325,430.884338 
	C179.747101,432.725922 196.778046,433.983429 213.805084,434.887238 
	C233.538559,435.934692 253.304459,436.720093 273.062012,436.871368 
	C294.518463,437.035675 315.984619,436.476318 337.440765,435.981049 
	C359.364441,435.475006 381.285675,434.781891 403.198608,433.929596 
	C412.296204,433.575745 421.392334,432.811310 430.448547,431.851166 
	C444.094696,430.404419 457.818329,429.244354 471.296906,426.795227 
	C483.130005,424.645111 494.728210,421.082214 506.290863,417.671143 
	C508.432617,417.039337 511.596985,413.818604 511.308533,412.398010 
	C510.855347,410.166138 507.889252,408.427490 505.934692,406.534241 
	C505.608887,406.218658 505.013489,406.186401 504.548035,406.009247 
	C488.760712,399.999359 472.164459,397.902710 455.938141,395.299286 
	C460.596100,390.128723 465.776520,385.335144 469.824707,379.724579 
	C491.275269,349.994965 492.699341,307.160461 467.104980,273.466827 
	C468.452057,272.574249 469.799133,271.681641 471.636475,271.167053 
	C472.383270,271.863495 473.130066,272.559906 474.211273,273.836151 
	C475.164917,273.605988 476.118530,273.375793 477.700836,273.059021 
	C478.492249,272.446960 479.283661,271.834900 480.699402,270.943726 
	C482.519897,268.544067 487.530975,267.070862 482.973175,262.388306 
	C482.821320,262.077942 482.572632,261.923065 481.959656,261.309814 
	C480.338989,259.821564 478.718323,258.333344 477.061829,256.937958 
	C477.061829,256.937958 477.155334,256.903900 476.992065,256.302612 
z"/>
<path fill="#E9E8E7" opacity="1.000000" stroke="none" 
	d="
M455.553131,395.878815 
	C472.164459,397.902710 488.760712,399.999359 504.548035,406.009247 
	C505.013489,406.186401 505.608887,406.218658 505.934692,406.534241 
	C507.889252,408.427490 510.855347,410.166138 511.308533,412.398010 
	C511.596985,413.818604 508.432617,417.039337 506.290863,417.671143 
	C494.728210,421.082214 483.130005,424.645111 471.296906,426.795227 
	C457.818329,429.244354 444.094696,430.404419 430.448547,431.851166 
	C421.392334,432.811310 412.296204,433.575745 403.198608,433.929596 
	C381.285675,434.781891 359.364441,435.475006 337.440765,435.981049 
	C315.984619,436.476318 294.518463,437.035675 273.062012,436.871368 
	C253.304459,436.720093 233.538559,435.934692 213.805084,434.887238 
	C196.778046,433.983429 179.747101,432.725922 162.798325,430.884338 
	C142.254211,428.652039 121.595055,426.777679 101.754471,420.362640 
	C99.707565,419.700806 97.489708,419.079529 95.837555,417.807587 
	C93.734085,416.188263 92.126465,413.924866 90.305084,411.939117 
	C92.334671,410.078430 94.077011,407.195923 96.442711,406.530823 
	C107.732597,403.356934 119.093666,400.247528 130.617340,398.145233 
	C142.959183,395.893677 155.486130,394.551361 167.979248,393.270233 
	C176.821777,392.363434 185.742416,392.218384 195.206726,392.033966 
	C195.847275,392.896057 195.909256,393.457458 195.736755,394.180939 
	C195.813904,394.823669 196.125534,395.304291 196.381683,395.852600 
	C196.326202,395.920227 196.205338,395.793701 196.150116,396.142151 
	C196.482315,397.205048 196.869736,397.919525 197.491272,398.923767 
	C203.021240,417.662354 215.252792,424.496155 233.902313,419.355621 
	C244.976425,416.303192 256.032288,413.183716 267.083435,410.048828 
	C289.821777,403.598694 312.551483,397.117981 335.585022,390.802155 
	C346.507324,401.335754 358.890991,408.795624 373.108093,413.663208 
	C374.812988,414.267883 376.435760,414.560547 378.392944,414.814056 
	C379.156403,414.893097 379.585510,415.011261 380.067780,415.451416 
	C381.095581,415.809906 382.070221,415.846497 383.419647,415.825195 
	C384.535370,415.900055 385.276306,416.032745 386.101318,416.519257 
	C388.132172,416.891357 390.078979,416.909607 392.478668,416.846558 
	C396.616211,416.829407 400.300842,416.893616 404.219635,417.245300 
	C406.295013,417.105286 408.136230,416.677795 410.372437,416.106384 
	C427.684906,413.703033 442.325470,406.366302 455.553131,395.878815 
z"/>
<path fill="#ED1D3A" opacity="1.000000" stroke="none" 
	d="
M180.889511,339.241547 
	C171.143326,340.117950 161.343155,342.106903 151.662323,341.636993 
	C132.072586,340.686066 119.849632,328.727509 116.791084,309.403870 
	C114.425514,294.458405 119.834427,266.701324 128.168945,253.596725 
	C127.673500,255.598541 126.986526,257.574890 126.716515,259.606689 
	C125.669342,267.486450 123.834328,275.401794 123.988045,283.270813 
	C124.281944,298.316376 134.152039,308.256714 149.207169,308.868103 
	C156.422668,309.161102 163.714935,307.564148 171.709503,306.644104 
	C175.673721,305.380310 178.900848,304.295593 182.468201,303.180237 
	C184.247238,302.545898 185.686035,301.942230 187.451263,301.304169 
	C188.534393,300.871582 189.291107,300.473358 190.409668,300.048553 
	C214.380569,289.821228 235.580124,275.782410 255.656799,259.332855 
	C257.938385,257.452667 259.919739,255.716309 262.218536,253.868469 
	C263.805237,252.680298 265.008911,251.511871 266.358154,250.547058 
	C268.759949,248.829620 267.189819,247.934830 265.608826,246.680817 
	C264.109009,245.118271 262.730133,243.838104 261.171509,242.279602 
	C259.530518,240.597717 258.069275,239.194168 256.437744,237.475647 
	C256.574890,236.508987 256.788483,235.355347 257.203339,235.277725 
	C275.920044,231.776535 294.662689,228.413773 313.378296,224.906921 
	C316.374115,224.345566 316.234039,225.983719 315.992523,228.294098 
	C315.551300,230.777832 315.242828,232.883118 314.752686,235.252228 
	C314.453278,236.355713 314.335541,237.195389 314.092712,238.408997 
	C313.657928,240.864334 313.348206,242.945740 312.894501,245.337280 
	C312.572571,246.765366 312.394592,247.883301 312.079407,249.387970 
	C309.975311,260.895599 308.008453,272.016541 305.923035,283.401978 
	C305.187195,287.162415 303.820251,284.311188 302.625763,283.733459 
	C299.385437,280.036133 296.275818,276.631836 293.113220,273.169556 
	C286.775909,278.544434 281.224426,283.252838 275.365326,288.068054 
	C271.379578,291.070038 267.701447,293.965210 263.690674,296.958252 
	C259.842743,299.639130 256.327454,302.222137 252.481644,304.899902 
	C234.429001,316.900970 215.736450,326.970612 195.498993,334.757782 
	C194.357925,335.115906 193.552307,335.467468 192.404114,335.826935 
	C191.638474,335.997314 191.215408,336.159821 190.449265,336.379028 
	C187.033951,337.371033 183.961731,338.306274 180.889511,339.241547 
z"/>
<path fill="#343131" opacity="1.000000" stroke="none" 
	d="
M380.014618,415.129456 
	C379.585510,415.011261 379.156403,414.893097 378.126923,414.618286 
	C376.026367,414.091522 374.526215,413.721375 373.026031,413.351227 
	C358.890991,408.795624 346.507324,401.335754 335.459381,390.492950 
	C331.194305,385.306030 327.355133,380.580597 323.436035,375.555847 
	C322.847443,374.366425 322.338806,373.476318 321.724548,372.233551 
	C312.751038,356.033905 309.445465,339.001923 310.897491,320.619873 
	C310.993805,319.497620 310.968079,318.737885 311.059753,317.589661 
	C311.668854,314.497162 312.160492,311.793213 312.804596,308.860962 
	C312.970917,308.091705 312.984802,307.550720 313.190369,306.688416 
	C314.129303,303.952820 314.876556,301.538513 315.774872,298.969238 
	C316.071594,298.535187 316.072113,298.255829 316.106812,297.666077 
	C317.694946,294.256165 319.103638,291.156372 320.733398,287.832153 
	C322.123505,285.473816 323.292542,283.339874 324.694672,280.980652 
	C338.395386,261.038147 356.834534,248.562958 380.349884,243.010315 
	C381.195129,243.005814 381.679535,242.947540 382.542725,242.787766 
	C385.917450,242.348267 388.913361,242.010300 392.222534,241.745697 
	C393.320770,241.661057 394.105682,241.503052 395.343262,241.322266 
	C401.154694,241.574051 406.513519,241.848618 411.872345,242.123199 
	C428.321991,245.203766 443.145935,251.745407 455.886505,262.749939 
	C456.213318,263.032166 456.806366,263.006226 457.638184,262.844666 
	C458.001099,262.565308 457.979584,262.491821 457.548218,262.478638 
	C457.215912,263.209259 457.039764,264.214020 457.458069,264.655151 
	C460.509674,267.873291 463.680725,270.978149 466.814056,274.118805 
	C492.699341,307.160461 491.275269,349.994965 469.824707,379.724579 
	C465.776520,385.335144 460.596100,390.128723 455.745636,395.589050 
	C442.325470,406.366302 427.684906,413.703033 409.987549,416.087799 
	C407.466888,416.461395 405.726196,416.709595 403.985474,416.957825 
	C400.300842,416.893616 396.616211,416.829407 392.124084,416.729889 
	C389.550110,416.518188 387.783691,416.341827 386.017242,416.165436 
	C385.276306,416.032745 384.535370,415.900055 383.146393,415.662781 
	C381.670441,415.415283 380.842529,415.272369 380.014618,415.129456 
M334.528320,292.109009 
	C323.583893,312.355804 321.614319,333.310150 329.519958,355.063080 
	C333.647125,366.419250 340.420410,376.002014 349.450806,383.885864 
	C367.553467,399.689941 388.572845,405.689148 412.254608,401.321014 
	C424.539124,399.055084 435.515045,393.838013 445.109283,385.592743 
	C466.885193,366.878723 475.319550,343.306702 470.463867,315.251587 
	C467.380859,297.438690 458.161621,282.911621 444.030151,271.502838 
	C427.213623,257.926361 407.674957,253.511902 386.911865,256.433594 
	C364.298523,259.615692 347.108032,272.159882 334.528320,292.109009 
z"/>
<path fill="#057F82" opacity="1.000000" stroke="none" 
	d="
M182.127975,303.210876 
	C178.900848,304.295593 175.673721,305.380310 172.151550,306.477509 
	C162.925995,274.985718 153.978271,243.486328 145.072098,211.975189 
	C140.549438,195.973434 136.057327,179.962723 131.632919,163.933563 
	C127.437881,148.735336 134.947189,135.163895 150.010300,130.913483 
	C208.780716,114.329994 267.560425,97.779213 326.359192,81.296585 
	C341.520752,77.046455 354.870300,84.642937 359.373260,99.798035 
	C360.935455,105.055756 362.459747,110.324745 364.076202,116.346001 
	C362.445496,121.598915 360.739990,126.094414 358.838989,130.288177 
	C357.680603,124.051132 356.717682,118.115791 355.730469,112.030731 
	C352.712067,112.608757 350.293213,113.071968 347.599121,113.433144 
	C346.741333,112.863846 346.158752,112.396591 345.533813,111.592972 
	C345.324677,110.837852 345.157898,110.419098 345.012421,109.608810 
	C344.307587,106.592239 343.581482,103.967209 342.743134,100.936562 
	C338.533936,102.290024 334.734467,103.511742 330.572601,104.790764 
	C328.098633,101.570831 325.987030,98.293602 323.666962,94.692825 
	C316.782593,97.388763 309.521393,100.201843 302.283020,103.072487 
	C280.517242,111.704521 258.760376,120.358986 236.627228,129.027954 
	C219.976273,132.378815 203.716049,135.797867 187.411926,138.993011 
	C179.983215,140.448822 172.467804,141.462280 164.759155,142.714157 
	C165.218674,144.829269 165.534439,146.282700 165.564133,147.864014 
	C157.793427,150.099304 150.308777,152.206741 142.978882,154.270615 
	C143.710083,158.219406 144.336365,161.601578 144.621765,165.047943 
	C142.620377,165.817764 140.959885,166.523407 140.114426,166.882690 
	C148.885086,192.141754 157.529495,217.037186 166.159546,242.321884 
	C167.960999,249.340927 169.776779,255.970718 171.622711,262.982971 
	C175.144562,276.647278 178.636276,289.929047 182.127975,303.210876 
z"/>
<path fill="#ED1D3A" opacity="1.000000" stroke="none" 
	d="
M359.034454,130.589905 
	C360.739990,126.094414 362.445496,121.598915 364.199524,116.738892 
	C365.610535,107.733940 368.091675,99.093750 368.093567,90.453018 
	C368.097076,74.422379 358.207825,64.583282 342.158478,64.294067 
	C334.298126,64.152428 326.397064,66.146774 318.519073,67.209206 
	C316.843994,67.435112 315.189270,67.812218 313.460724,67.734421 
	C330.493927,60.811409 347.770996,55.187920 366.537415,56.869663 
	C387.073029,58.709953 399.960266,72.004539 401.108368,92.631279 
	C402.252411,113.184731 395.661011,131.966446 387.646149,150.371155 
	C384.996460,156.455765 381.810394,162.306808 378.525848,168.842545 
	C374.702301,175.404648 371.222504,181.388855 367.509644,187.572052 
	C362.785614,194.302811 358.487305,200.978119 353.755676,207.330673 
	C347.562836,215.644989 341.027618,223.704300 334.371521,232.012421 
	C333.381134,233.110580 332.658936,234.069611 331.663696,235.155243 
	C330.301208,235.885757 329.211731,236.489670 328.348572,236.817490 
	C328.726471,235.360367 328.878052,234.179337 329.191284,232.651581 
	C329.625732,230.497025 329.898529,228.689209 330.362793,226.580414 
	C330.947144,223.836411 331.340057,221.393356 331.861908,218.557861 
	C332.589233,214.826721 333.187653,211.488037 333.884125,207.602249 
	C324.187653,209.349838 315.105469,210.986710 305.459595,212.725189 
	C309.584137,207.541412 313.362274,202.792984 317.413025,197.909866 
	C318.218903,196.933823 318.752167,196.092484 319.245239,195.211456 
	C319.205048,195.171783 319.191040,195.283829 319.457336,195.190918 
	C319.906219,194.776047 320.088837,194.454102 320.553101,193.960648 
	C322.675354,191.232056 324.516022,188.674973 326.621216,185.954895 
	C327.443146,184.918976 328.000519,184.046082 328.796570,182.962051 
	C330.759369,180.179565 332.483459,177.608185 334.475098,174.879913 
	C335.470367,173.479111 336.198151,172.235245 337.195801,170.778778 
	C344.655243,157.240753 351.844849,143.915329 359.034454,130.589905 
z"/>
<path fill="#057F82" opacity="1.000000" stroke="none" 
	d="
M323.515991,375.855194 
	C327.355133,380.580597 331.194305,385.306030 335.159088,390.340637 
	C312.551483,397.117981 289.821777,403.598694 267.083435,410.048828 
	C256.032288,413.183716 244.976425,416.303192 233.902313,419.355621 
	C215.252792,424.496155 203.021240,417.662354 197.480118,398.604431 
	C196.891678,397.261383 196.548508,396.527557 196.205353,395.793701 
	C196.205338,395.793701 196.326202,395.920227 196.384583,395.542938 
	C196.285721,394.783386 196.128479,394.401123 195.971237,394.018860 
	C195.909256,393.457458 195.847275,392.896057 195.602722,392.112305 
	C190.625626,374.631165 185.831055,357.372375 180.962997,339.677551 
	C183.961731,338.306274 187.033951,337.371033 190.497864,336.757690 
	C192.611237,343.046753 194.332916,349.013885 196.057999,355.359375 
	C196.894501,358.524963 197.727585,361.312134 198.620087,364.492249 
	C200.480698,372.630219 202.232391,380.387390 204.129288,388.108887 
	C204.465912,389.479065 205.406631,390.700836 206.039093,392.387939 
	C207.111710,397.073547 208.213638,401.362335 209.447327,406.163940 
	C216.383789,404.129700 222.976700,402.196198 229.664825,400.310059 
	C229.760056,400.357391 229.936447,400.238556 230.232910,400.409363 
	C231.827072,403.436646 233.124741,406.293182 234.612228,409.567505 
	C260.546875,399.273773 286.344360,389.034454 312.546692,378.732422 
	C316.473022,377.731537 319.994507,376.793365 323.515991,375.855194 
z"/>
<path fill="#343131" opacity="1.000000" stroke="none" 
	d="
M390.618835,211.032730 
	C398.909119,211.425674 407.198151,211.847900 415.490082,212.202515 
	C422.421997,212.498962 423.047729,213.170746 422.605774,220.286407 
	C422.471985,222.440918 422.307068,224.593689 422.193115,226.749207 
	C421.740814,235.304977 421.746216,235.305267 412.117523,235.018738 
	C409.924805,235.143356 408.577637,235.244583 406.791046,235.204376 
	C401.586304,234.755341 396.820953,234.447739 391.615906,234.095947 
	C382.132874,233.816528 381.541504,233.200943 382.189758,224.416946 
	C382.335083,222.448318 382.758698,220.498337 382.869141,218.529373 
	C383.279999,211.204849 383.284943,211.170334 390.618835,211.032730 
z"/>
<path fill="#047F81" opacity="1.000000" stroke="none" 
	d="
M390.501221,210.686096 
	C383.284943,211.170334 383.279999,211.204849 382.869141,218.529373 
	C382.758698,220.498337 382.335083,222.448318 382.189758,224.416946 
	C381.541504,233.200943 382.132874,233.816528 391.619019,234.516876 
	C392.010986,237.212097 391.960114,239.442200 391.909241,241.672318 
	C388.913361,242.010300 385.917450,242.348267 382.553467,242.556030 
	C382.185333,242.425827 381.999420,241.999237 382.048950,241.671646 
	C382.034088,240.909302 381.969696,240.474548 382.171326,239.833832 
	C379.131073,228.941742 375.833557,218.252899 372.474121,207.583511 
	C372.379395,207.282623 371.624420,207.189636 371.055176,206.608383 
	C369.869598,199.935730 368.806122,193.654388 367.742676,187.373047 
	C371.222504,181.388855 374.702301,175.404648 378.415344,169.193878 
	C382.560242,182.758041 386.471924,196.548767 390.501221,210.686096 
z"/>
<path fill="#373434" opacity="1.000000" stroke="none" 
	d="
M457.979584,262.491821 
	C457.979584,262.491821 458.001099,262.565308 457.998596,262.603333 
	C458.959869,261.765503 459.923584,260.889679 460.856171,260.042145 
	C456.889954,254.626266 459.122894,248.320084 465.433350,247.205750 
	C466.793640,246.965561 468.596069,248.327957 469.967468,249.279770 
	C471.682526,250.470108 473.162628,251.998962 474.882660,254.064713 
	C475.732544,255.466476 476.443939,256.185181 477.155334,256.903900 
	C477.155334,256.903900 477.061829,256.937958 477.072754,257.252808 
	C478.798157,259.019684 480.512634,260.471680 482.227081,261.923676 
	C482.572632,261.923065 482.821320,262.077942 482.994751,263.011353 
	C482.035889,266.163879 481.055481,268.693359 480.075043,271.222809 
	C479.283661,271.834900 478.492249,272.446960 477.193451,272.819580 
	C475.749664,272.805542 474.813293,273.030945 473.876892,273.256317 
	C473.130066,272.559906 472.383270,271.863495 471.260681,270.669250 
	C466.849579,267.163849 463.704620,262.659973 457.979584,262.491821 
z"/>
<path fill="#9D9E9D" opacity="1.000000" stroke="none" 
	d="
M407.230438,235.345795 
	C408.577637,235.244583 409.924805,235.143356 411.676880,235.072128 
	C411.997833,237.148575 411.913940,239.195023 411.851196,241.682327 
	C406.513519,241.848618 401.154694,241.574051 395.497528,240.969879 
	C396.768341,239.832977 398.299072,238.936691 399.915619,238.239273 
	C402.322113,237.201065 404.789154,236.303329 407.230438,235.345795 
z"/>
<path fill="#9D9E9D" opacity="1.000000" stroke="none" 
	d="
M457.548218,262.478638 
	C463.704620,262.659973 466.849579,267.163849 471.015564,270.480225 
	C469.799133,271.681641 468.452057,272.574249 466.959534,273.792816 
	C463.680725,270.978149 460.509674,267.873291 457.458069,264.655151 
	C457.039764,264.214020 457.215912,263.209259 457.548218,262.478638 
z"/>
<path fill="#282727" opacity="1.000000" stroke="none" 
	d="
M480.387207,271.083252 
	C481.055481,268.693359 482.035889,266.163879 483.034180,263.238190 
	C487.530975,267.070862 482.519897,268.544067 480.387207,271.083252 
z"/>
<path fill="#282727" opacity="1.000000" stroke="none" 
	d="
M482.093384,261.616760 
	C480.512634,260.471680 478.798157,259.019684 477.090698,257.206390 
	C478.718323,258.333344 480.338989,259.821564 482.093384,261.616760 
z"/>
<path fill="#282727" opacity="1.000000" stroke="none" 
	d="
M474.044067,273.546234 
	C474.813293,273.030945 475.749664,272.805542 476.879120,272.862915 
	C476.118530,273.375793 475.164917,273.605988 474.044067,273.546234 
z"/>
<path fill="#282727" opacity="1.000000" stroke="none" 
	d="
M477.073700,256.603271 
	C476.443939,256.185181 475.732544,255.466476 475.012390,254.385223 
	C475.666412,254.782669 476.329224,255.542648 477.073700,256.603271 
z"/>
<path fill="#F1F6FA" opacity="1.000000" stroke="none" 
	d="
M404.219635,417.245300 
	C405.726196,416.709595 407.466888,416.461395 409.592529,416.231750 
	C408.136230,416.677795 406.295013,417.105286 404.219635,417.245300 
z"/>
<path fill="#F1F6FA" opacity="1.000000" stroke="none" 
	d="
M386.101318,416.519257 
	C387.783691,416.341827 389.550110,416.518188 391.671143,416.811218 
	C390.078979,416.909607 388.132172,416.891357 386.101318,416.519257 
z"/>
<path fill="#F1F6FA" opacity="1.000000" stroke="none" 
	d="
M373.108093,413.663208 
	C374.526215,413.721375 376.026367,414.091522 377.792542,414.657440 
	C376.435760,414.560547 374.812988,414.267883 373.108093,413.663208 
z"/>
<path fill="#F1F6FA" opacity="1.000000" stroke="none" 
	d="
M380.067780,415.451416 
	C380.842529,415.272369 381.670441,415.415283 382.771606,415.720642 
	C382.070221,415.846497 381.095581,415.809906 380.067780,415.451416 
z"/>
<path fill="#FFFFFF" opacity="1.000000" stroke="none" 
	d="
M196.150116,396.142151 
	C196.548508,396.527557 196.891678,397.261383 197.246002,398.314606 
	C196.869736,397.919525 196.482315,397.205048 196.150116,396.142151 
z"/>
<path fill="#FFFFFF" opacity="1.000000" stroke="none" 
	d="
M195.736755,394.180939 
	C196.128479,394.401123 196.285721,394.783386 196.440063,395.475281 
	C196.125534,395.304291 195.813904,394.823669 195.736755,394.180939 
z"/>
<path fill="#FEFEFE" opacity="1.000000" stroke="none" 
	d="
M358.838989,130.288177 
	C351.844849,143.915329 344.655243,157.240753 336.772675,170.778732 
	C322.213379,173.105453 308.338928,175.167694 294.482819,177.346695 
	C276.390259,180.191879 258.306885,183.097153 240.236053,186.076599 
	C238.398163,186.379639 236.673248,187.367966 234.895905,188.038254 
	C235.018295,188.551987 235.140671,189.065720 235.263062,189.579453 
	C236.774353,189.579453 238.308365,189.746277 239.792130,189.544144 
	C242.732803,189.143539 245.637711,188.488037 248.571472,188.027603 
	C266.667267,185.187607 284.760590,182.330566 302.867889,179.565475 
	C313.301666,177.972168 323.760193,176.540985 334.207581,175.036819 
	C332.483459,177.608185 330.759369,180.179565 328.315979,182.909760 
	C319.585083,184.146164 311.554321,185.099472 303.565613,186.326416 
	C285.130829,189.157700 266.707153,192.065018 248.300934,195.075851 
	C244.217896,195.743744 240.225677,196.966858 236.191650,197.934326 
	C236.375443,198.742523 236.559250,199.550735 236.743057,200.358932 
	C266.614258,195.611923 296.485474,190.864914 326.356689,186.117905 
	C324.516022,188.674973 322.675354,191.232056 320.271851,194.038086 
	C319.536377,194.619278 319.363708,194.951553 319.191040,195.283829 
	C319.191040,195.283829 319.205048,195.171783 318.780548,195.124023 
	C316.362091,195.090271 314.327881,194.849609 312.380371,195.157486 
	C291.831085,198.406265 271.291107,201.714890 250.760056,205.077209 
	C246.503693,205.774277 242.294647,206.760269 238.063797,207.613113 
	C238.073792,208.172241 238.083786,208.731354 238.093796,209.290482 
	C239.664932,209.515320 241.296707,210.133514 242.797546,209.902191 
	C253.894272,208.191788 264.958313,206.270752 276.045471,204.496368 
	C289.737305,202.305176 303.441528,200.191650 317.140411,198.044586 
	C313.362274,202.792984 309.584137,207.541412 305.459595,212.725189 
	C315.105469,210.986710 324.187653,209.349838 333.884125,207.602249 
	C333.187653,211.488037 332.589233,214.826721 331.451874,218.563904 
	C312.948120,221.805923 294.985046,224.660385 277.017853,227.488632 
	C267.218933,229.031097 257.413452,230.532089 247.609909,232.045166 
	C244.930420,232.458679 241.647995,232.807419 242.219391,236.404068 
	C242.829727,240.245728 246.158081,238.888870 248.709412,238.602966 
	C251.339615,238.308212 253.974960,238.059479 256.608063,237.790619 
	C258.069275,239.194168 259.530518,240.597717 260.905396,242.619751 
	C255.595673,245.467224 249.119293,243.847855 244.385941,247.582077 
	C244.501831,248.082626 244.617722,248.583176 244.733612,249.083725 
	C251.732346,248.376892 258.731079,247.670059 265.729797,246.963211 
	C267.189819,247.934830 268.759949,248.829620 266.358154,250.547058 
	C265.008911,251.511871 263.805237,252.680298 261.809082,253.876923 
	C256.059235,254.855377 251.036255,255.713898 246.013275,256.572418 
	C246.025497,257.171875 246.037735,257.771362 246.049957,258.370850 
	C247.839172,258.555115 249.630493,258.721222 251.416885,258.929688 
	C252.733459,259.083344 254.043579,259.292358 255.356583,259.476715 
	C235.580124,275.782410 214.380569,289.821228 190.393478,299.625610 
	C189.319946,295.497833 188.624466,291.766388 187.951721,287.611115 
	C186.250061,275.747253 184.598419,264.295685 182.784607,252.869873 
	C179.908798,234.753998 176.955887,216.650192 173.976028,198.551071 
	C171.694199,184.691635 169.320358,170.847366 166.993362,156.567169 
	C166.616257,153.337372 166.233231,150.536758 165.850220,147.736145 
	C165.534439,146.282700 165.218674,144.829269 164.759155,142.714157 
	C172.467804,141.462280 179.983215,140.448822 187.411926,138.993011 
	C203.716049,135.797867 219.976273,132.378815 236.701172,129.397308 
	C237.964584,130.130890 238.846191,130.950027 239.587738,130.838440 
	C246.423737,129.809601 253.228699,128.577286 260.055695,127.485405 
	C275.830078,124.962532 291.626160,122.571907 307.384644,119.954445 
	C315.956970,118.530586 324.470520,116.752625 333.407776,115.105225 
	C334.866333,115.044167 335.927643,115.012260 337.409302,114.983780 
	C341.177856,114.503204 344.526093,114.019196 347.874329,113.535187 
	C350.293213,113.071968 352.712067,112.608757 355.730469,112.030731 
	C356.717682,118.115791 357.680603,124.051132 358.838989,130.288177 
M223.914200,244.813416 
	C224.612869,243.358185 225.566849,241.964783 225.938522,240.430328 
	C226.310913,238.892914 226.102005,237.214676 226.147873,235.598160 
	C224.500580,235.984665 222.853287,236.371170 220.284927,236.754944 
	C213.888504,237.694229 207.510468,238.799362 201.088852,239.511353 
	C197.158447,239.947098 196.685318,241.922058 197.330612,245.255676 
	C198.400909,250.785049 199.383865,256.346985 200.019653,261.938843 
	C200.390991,265.204895 201.663101,266.300781 204.862869,265.725281 
	C210.733459,264.669403 216.619583,263.660553 222.533951,262.903473 
	C225.622406,262.508148 226.503571,261.012695 225.994049,258.198029 
	C225.226852,253.959930 224.495651,249.715317 223.914200,244.813416 
M214.643845,185.116669 
	C215.300018,183.785339 216.238922,182.513885 216.536926,181.106689 
	C216.868607,179.540588 216.616760,177.850876 216.618927,176.214981 
	C215.051025,176.541214 213.483139,176.867447 211.095169,177.151337 
	C204.548889,178.174240 197.969208,179.032120 191.481705,180.345322 
	C190.007080,180.643829 187.632462,182.658813 187.745361,183.646866 
	C188.534088,190.550476 189.768570,197.411804 191.140350,204.230316 
	C191.333145,205.188614 193.154739,206.625259 194.047806,206.508224 
	C200.777908,205.626175 207.495514,204.558029 214.133484,203.153320 
	C215.232590,202.920731 216.770111,200.677917 216.654495,199.507355 
	C216.200592,194.911636 215.166397,190.373215 214.643845,185.116669 
M290.673981,171.061569 
	C300.459076,169.443527 310.263275,167.927063 320.007446,166.091721 
	C321.379639,165.833282 322.458405,164.016724 323.673004,162.921371 
	C322.151215,161.948776 320.628418,160.166107 319.107849,160.168015 
	C315.677185,160.172318 312.245728,161.047089 308.817963,161.589005 
	C293.141479,164.067352 277.465240,166.546982 261.790863,169.038483 
	C253.299911,170.388153 244.783478,171.613678 236.354294,173.278702 
	C235.017426,173.542786 234.081573,175.837082 232.960327,177.192734 
	C234.461319,178.087631 235.870483,179.374451 237.492111,179.754395 
	C238.808105,180.062759 240.370987,179.231461 241.838501,178.992401 
	C257.826660,176.387894 273.817596,173.800476 290.673981,171.061569 
z"/>
<path fill="#FEFEFE" opacity="1.000000" stroke="none" 
	d="
M206.068390,391.991119 
	C205.406631,390.700836 204.465912,389.479065 204.129288,388.108887 
	C202.232391,380.387390 200.480698,372.630219 198.979004,364.279053 
	C199.344437,361.777649 199.689438,359.842896 199.427673,357.994049 
	C198.328827,350.232483 197.048401,342.496552 195.834473,334.751251 
	C215.736450,326.970612 234.429001,316.900970 252.542343,304.962524 
	C252.933594,304.930359 253.055450,305.055084 253.053070,305.429443 
	C254.065399,306.689392 255.179749,308.428589 256.078796,308.323639 
	C262.451599,307.579681 268.779266,306.451599 275.123199,305.457703 
	C288.622803,303.342804 302.123566,301.234985 315.623840,299.124268 
	C314.876556,301.538513 314.129303,303.952820 312.753479,306.686493 
	C293.996521,309.690613 275.864594,312.352051 257.750610,315.130646 
	C256.870239,315.265747 256.147614,316.429199 255.351532,317.113770 
	C256.389038,317.518860 257.480835,318.372009 258.454956,318.253967 
	C263.534424,317.638580 268.598206,316.858246 273.641174,315.983917 
	C286.652191,313.728119 299.649414,311.392822 312.652161,309.089233 
	C312.160492,311.793213 311.668854,314.497162 310.699463,317.430756 
	C308.125610,317.618774 305.986084,317.282776 303.940460,317.584106 
	C292.200500,319.313324 280.474121,321.140533 268.762390,323.052490 
	C264.791595,323.700745 260.876984,324.692841 256.936676,325.527802 
	C257.003723,326.177063 257.070770,326.826324 257.137787,327.475586 
	C258.485657,327.627655 259.882996,328.089386 261.173584,327.883087 
	C272.240509,326.114319 283.267212,324.084351 294.350464,322.431061 
	C299.776733,321.621643 305.297455,321.445282 310.775421,320.982391 
	C309.445465,339.001923 312.751038,356.033905 321.509888,372.317932 
	C321.400848,372.754974 321.006348,372.993866 320.557556,372.990112 
	C313.404266,373.824402 306.676910,374.512482 299.999878,375.530548 
	C284.194092,377.940430 268.399902,380.432617 252.625443,383.039307 
	C243.724075,384.510223 234.871063,386.273865 225.548630,387.907837 
	C219.656693,388.627167 214.203262,389.286011 208.779541,390.134613 
	C208.094589,390.241791 207.565552,391.345459 206.740295,391.989075 
	C206.516327,391.990723 206.068390,391.991119 206.068390,391.991119 
M289.939117,362.673920 
	C291.950745,362.034485 293.962372,361.395050 295.973999,360.755615 
	C295.892120,360.188629 295.810242,359.621613 295.728363,359.054626 
	C294.601044,358.954651 293.444946,358.642456 292.351349,358.790985 
	C287.254822,359.483185 282.168976,360.261719 277.091492,361.084686 
	C263.497009,363.288116 249.903152,365.497314 236.326187,367.804993 
	C234.891312,368.048889 233.570084,368.961334 232.196136,369.563629 
	C232.359711,370.082672 232.523285,370.601715 232.686844,371.120789 
	C235.099640,370.901001 237.531799,370.807495 239.922104,370.441071 
	C256.323792,367.926819 272.716705,365.355408 289.939117,362.673920 
z"/>
<path fill="#FEFDFD" opacity="1.000000" stroke="none" 
	d="
M367.509644,187.572052 
	C368.806122,193.654388 369.869598,199.935730 371.034668,207.002426 
	C372.524292,213.376022 373.912292,218.964264 375.115997,224.921097 
	C375.238129,229.231155 375.882782,233.184235 375.748047,237.110565 
	C375.632263,240.485611 377.198883,242.008270 379.989014,242.956528 
	C356.834534,248.562958 338.395386,261.038147 324.236267,280.930176 
	C317.710388,281.782501 311.876007,282.459991 306.041595,283.137482 
	C308.008453,272.016541 309.975311,260.895599 312.485229,249.386505 
	C326.589386,246.768204 340.150513,244.538071 353.711670,242.307953 
	C353.615997,241.539001 353.520325,240.770065 353.424683,240.001114 
	C350.924622,240.174805 348.407196,240.217178 345.927490,240.544815 
	C334.958557,241.994141 324.000488,243.525513 313.038483,245.027161 
	C313.348206,242.945740 313.657928,240.864334 314.512207,238.401703 
	C319.411896,237.711517 323.767059,237.402557 328.122223,237.093597 
	C329.211731,236.489670 330.301208,235.885757 332.106659,235.152527 
	C343.222778,233.924316 353.561035,232.534286 363.639740,229.924805 
	C363.497589,229.131882 363.355438,228.338974 363.213318,227.546066 
	C353.688751,228.988480 344.164215,230.430908 334.639679,231.873322 
	C341.027618,223.704300 347.562836,215.644989 353.755676,207.330673 
	C358.487305,200.978119 362.785614,194.302811 367.509644,187.572052 
z"/>
<path fill="#B4DDEE" opacity="1.000000" stroke="none" 
	d="
M256.437744,237.475662 
	C253.974960,238.059479 251.339615,238.308212 248.709412,238.602966 
	C246.158081,238.888870 242.829727,240.245728 242.219391,236.404068 
	C241.647995,232.807419 244.930420,232.458679 247.609909,232.045166 
	C257.413452,230.532089 267.218933,229.031097 277.017853,227.488632 
	C294.985046,224.660385 312.948120,221.805923 331.322937,218.956345 
	C331.340057,221.393356 330.947144,223.836411 330.062988,226.322723 
	C325.089600,226.882538 320.607422,227.399109 316.125275,227.915649 
	C316.234039,225.983719 316.374115,224.345566 313.378296,224.906921 
	C294.662689,228.413773 275.920044,231.776535 257.203339,235.277725 
	C256.788483,235.355347 256.574890,236.508987 256.437744,237.475662 
z"/>
<path fill="#FEFEFE" opacity="1.000000" stroke="none" 
	d="
M320.512329,288.056610 
	C319.103638,291.156372 317.694946,294.256165 315.817444,297.440491 
	C314.057861,297.045471 312.687195,296.007080 311.489502,296.178345 
	C304.504486,297.177185 297.576569,298.568848 290.598358,299.622467 
	C278.095673,301.510193 265.570953,303.252167 253.055450,305.055084 
	C253.055450,305.055084 252.933594,304.930359 252.872894,304.867767 
	C256.327454,302.222137 259.842743,299.639130 264.092285,296.990723 
	C283.388519,293.969116 301.950409,291.012848 320.512329,288.056610 
z"/>
<path fill="#B4E1F2" opacity="1.000000" stroke="none" 
	d="
M320.733398,287.832153 
	C301.950409,291.012848 283.388519,293.969116 264.424988,296.892883 
	C267.701447,293.965210 271.379578,291.070038 275.820282,288.092163 
	C285.307404,286.681854 294.031921,285.354187 302.756439,284.026520 
	C303.820251,284.311188 305.187195,287.162415 305.923035,283.401978 
	C311.876007,282.459991 317.710388,281.782501 324.003174,281.155457 
	C323.292542,283.339874 322.123505,285.473816 320.733398,287.832153 
z"/>
<path fill="#D1E5EA" opacity="1.000000" stroke="none" 
	d="
M187.928986,288.034973 
	C188.624466,291.766388 189.319946,295.497833 190.031616,299.652191 
	C189.291107,300.473358 188.534393,300.871582 187.415619,300.897278 
	C182.358643,287.807922 177.666229,275.090118 172.915878,262.394012 
	C172.884308,262.309601 172.051346,262.525055 171.592575,262.600494 
	C169.776779,255.970718 167.960999,249.340927 166.379166,242.158112 
	C167.234589,241.734192 168.266174,241.683411 168.413986,242.020340 
	C169.866486,245.331177 171.141190,248.719223 172.524918,252.061127 
	C176.662476,262.053864 180.826370,272.035736 184.987839,282.011688 
	C184.995697,282.001556 184.980240,282.009094 184.997574,282.312988 
	C185.340469,283.098511 185.666046,283.580200 185.988373,284.431519 
	C186.633072,285.879089 187.281021,286.957031 187.928986,288.034973 
z"/>
<path fill="#FAFAF8" opacity="1.000000" stroke="none" 
	d="
M302.625763,283.733459 
	C294.031921,285.354187 285.307404,286.681854 276.127930,287.985382 
	C281.224426,283.252838 286.775909,278.544434 293.113220,273.169556 
	C296.275818,276.631836 299.385437,280.036133 302.625763,283.733459 
z"/>
<path fill="#DDEFF5" opacity="1.000000" stroke="none" 
	d="
M171.622711,262.982971 
	C172.051346,262.525055 172.884308,262.309601 172.915878,262.394012 
	C177.666229,275.090118 182.358643,287.807922 187.089188,300.931641 
	C185.686035,301.942230 184.247238,302.545898 182.468201,303.180237 
	C178.636276,289.929047 175.144562,276.647278 171.622711,262.982971 
z"/>
<path fill="#DDEFF5" opacity="1.000000" stroke="none" 
	d="
M312.894501,245.337280 
	C324.000488,243.525513 334.958557,241.994141 345.927490,240.544815 
	C348.407196,240.217178 350.924622,240.174805 353.424683,240.001114 
	C353.520325,240.770065 353.615997,241.539001 353.711670,242.307953 
	C340.150513,244.538071 326.589386,246.768204 312.622437,248.999786 
	C312.394592,247.883301 312.572571,246.765366 312.894501,245.337280 
z"/>
<path fill="#FEFDFD" opacity="1.000000" stroke="none" 
	d="
M315.992523,228.294098 
	C320.607422,227.399109 325.089600,226.882538 329.871521,226.623688 
	C329.898529,228.689209 329.625732,230.497025 328.768311,232.656342 
	C323.767242,233.668015 319.350800,234.328201 314.934387,234.988403 
	C315.242828,232.883118 315.551300,230.777832 315.992523,228.294098 
z"/>
<path fill="#DAEAEF" opacity="1.000000" stroke="none" 
	d="
M265.608826,246.680817 
	C258.731079,247.670059 251.732346,248.376892 244.733612,249.083725 
	C244.617722,248.583176 244.501831,248.082626 244.385941,247.582077 
	C249.119293,243.847855 255.595673,245.467224 261.085175,242.898071 
	C262.730133,243.838104 264.109009,245.118271 265.608826,246.680817 
z"/>
<path fill="#D1E5EA" opacity="1.000000" stroke="none" 
	d="
M195.499008,334.757782 
	C197.048401,342.496552 198.328827,350.232483 199.427673,357.994049 
	C199.689438,359.842896 199.344437,361.777649 198.919617,363.886108 
	C197.727585,361.312134 196.894501,358.524963 196.338409,355.106567 
	C196.082108,350.478058 195.702621,346.451813 194.956375,342.494659 
	C194.525848,340.211731 193.502945,338.040527 192.746674,335.819031 
	C193.552307,335.467468 194.357925,335.115906 195.499008,334.757782 
z"/>
<path fill="#DAEAEF" opacity="1.000000" stroke="none" 
	d="
M314.752686,235.252228 
	C319.350800,234.328201 323.767242,233.668015 328.606628,233.003067 
	C328.878052,234.179337 328.726471,235.360367 328.348572,236.817490 
	C323.767059,237.402557 319.411896,237.711517 314.637268,238.027771 
	C314.335541,237.195389 314.453278,236.355713 314.752686,235.252228 
z"/>
<path fill="#DAEAEF" opacity="1.000000" stroke="none" 
	d="
M255.656799,259.332855 
	C254.043579,259.292358 252.733459,259.083344 251.416885,258.929688 
	C249.630493,258.721222 247.839172,258.555115 246.049957,258.370850 
	C246.037735,257.771362 246.025497,257.171875 246.013275,256.572418 
	C251.036255,255.713898 256.059235,254.855377 261.491638,253.988403 
	C259.919739,255.716309 257.938385,257.452667 255.656799,259.332855 
z"/>
<path fill="#DDEFF5" opacity="1.000000" stroke="none" 
	d="
M192.404114,335.826935 
	C193.502945,338.040527 194.525848,340.211731 194.956375,342.494659 
	C195.702621,346.451813 196.082108,350.478058 196.334991,354.728149 
	C194.332916,349.013885 192.611237,343.046753 190.840973,336.700989 
	C191.215408,336.159821 191.638474,335.997314 192.404114,335.826935 
z"/>
<path fill="#222020" opacity="1.000000" stroke="none" 
	d="
M334.752808,291.820068 
	C347.108032,272.159882 364.298523,259.615692 386.911865,256.433594 
	C407.674957,253.511902 427.213623,257.926361 444.030151,271.502838 
	C458.161621,282.911621 467.380859,297.438690 470.463867,315.251587 
	C475.319550,343.306702 466.885193,366.878723 445.109283,385.592743 
	C435.515045,393.838013 424.539124,399.055084 412.254608,401.321014 
	C388.572845,405.689148 367.553467,399.689941 349.450806,383.885864 
	C340.420410,376.002014 333.647125,366.419250 329.519958,355.063080 
	C321.614319,333.310150 323.583893,312.355804 334.752808,291.820068 
M388.114349,397.014587 
	C389.758728,396.954285 391.403076,396.894012 393.938354,396.682251 
	C396.948547,396.751587 399.958740,396.820923 403.417542,397.495331 
	C405.272491,397.063416 407.127472,396.631500 409.700897,395.872101 
	C428.185791,391.708801 444.080322,383.580383 454.818481,366.245392 
	C458.276184,357.825043 461.733887,349.404663 465.882019,340.821198 
	C465.883698,339.205292 465.885345,337.589417 465.740265,335.180695 
	C465.863800,334.117004 465.987335,333.053345 466.826935,331.836792 
	C468.342712,329.677979 469.336700,327.583557 465.893250,325.232178 
	C465.769867,323.894165 465.646515,322.556183 466.153625,320.893524 
	C465.815765,319.933014 465.477905,318.972504 464.965759,317.250458 
	C458.965454,289.776978 442.678589,271.791473 415.603912,263.782990 
	C413.091980,263.039978 410.526337,262.478577 407.800201,261.104706 
	C405.515533,261.135773 403.230896,261.166840 400.147919,261.411224 
	C398.499695,261.417450 396.851440,261.423676 394.782135,260.746185 
	C392.858398,261.122864 390.934662,261.499542 388.366150,262.093384 
	C387.916870,262.088898 387.467621,262.084412 386.687378,261.541656 
	C385.798309,261.930725 384.909210,262.319794 383.315674,263.015259 
	C382.206573,263.327667 381.092194,263.622528 379.989197,263.955261 
	C368.212982,267.507629 357.802856,273.392609 348.383667,282.279236 
	C345.933899,285.828766 343.335632,289.285950 341.059723,292.943665 
	C330.523499,309.877106 327.843201,328.097107 333.060730,347.277252 
	C336.327209,359.285248 342.176300,370.073944 351.785217,378.228363 
	C357.510071,383.086670 363.567780,387.842255 370.189362,391.262756 
	C375.493500,394.002716 381.872864,394.661102 388.114349,397.014587 
z"/>
<path fill="#DDEFF5" opacity="1.000000" stroke="none" 
	d="
M253.053070,305.429443 
	C265.570953,303.252167 278.095673,301.510193 290.598358,299.622467 
	C297.576569,298.568848 304.504486,297.177185 311.489502,296.178345 
	C312.687195,296.007080 314.057861,297.045471 315.638000,297.750671 
	C316.072113,298.255829 316.071594,298.535187 315.774872,298.969269 
	C302.123566,301.234985 288.622803,303.342804 275.123199,305.457703 
	C268.779266,306.451599 262.451599,307.579681 256.078796,308.323639 
	C255.179749,308.428589 254.065399,306.689392 253.053070,305.429443 
z"/>
<path fill="#DDEFF5" opacity="1.000000" stroke="none" 
	d="
M312.804626,308.860962 
	C299.649414,311.392822 286.652191,313.728119 273.641174,315.983917 
	C268.598206,316.858246 263.534424,317.638580 258.454956,318.253967 
	C257.480835,318.372009 256.389038,317.518860 255.351532,317.113770 
	C256.147614,316.429199 256.870239,315.265747 257.750610,315.130646 
	C275.864594,312.352051 293.996521,309.690613 312.561798,307.007812 
	C312.984802,307.550720 312.970917,308.091705 312.804626,308.860962 
z"/>
<path fill="#DAEAEF" opacity="1.000000" stroke="none" 
	d="
M310.897491,320.619873 
	C305.297455,321.445282 299.776733,321.621643 294.350464,322.431061 
	C283.267212,324.084351 272.240509,326.114319 261.173584,327.883087 
	C259.882996,328.089386 258.485657,327.627655 257.137787,327.475586 
	C257.070770,326.826324 257.003723,326.177063 256.936676,325.527802 
	C260.876984,324.692841 264.791595,323.700745 268.762390,323.052490 
	C280.474121,321.140533 292.200500,319.313324 303.940460,317.584106 
	C305.986084,317.282776 308.125610,317.618774 310.582031,317.819275 
	C310.968079,318.737885 310.993805,319.497620 310.897491,320.619873 
z"/>
<path fill="#666666" opacity="1.000000" stroke="none" 
	d="
M406.791046,235.204376 
	C404.789154,236.303329 402.322113,237.201065 399.915619,238.239273 
	C398.299072,238.936691 396.768341,239.832977 395.044922,240.992645 
	C394.105682,241.503052 393.320770,241.661057 392.222534,241.745697 
	C391.960114,239.442200 392.010986,237.212097 392.058716,234.561066 
	C396.820953,234.447739 401.586304,234.755341 406.791046,235.204376 
z"/>
<path fill="#E4ECF1" opacity="1.000000" stroke="none" 
	d="
M380.349884,243.010315 
	C377.198883,242.008270 375.632263,240.485611 375.748047,237.110565 
	C375.882782,233.184235 375.238129,229.231155 375.353210,225.202942 
	C377.548004,229.917709 379.321259,234.719238 381.100464,239.874237 
	C381.404053,240.818222 381.701721,241.408737 381.999420,241.999237 
	C381.999420,241.999237 382.185333,242.425827 382.174622,242.657562 
	C381.679535,242.947540 381.195129,243.005814 380.349884,243.010315 
z"/>
<path fill="#FEFEFE" opacity="1.000000" stroke="none" 
	d="
M323.436035,375.555847 
	C319.994507,376.793365 316.473022,377.731537 312.514038,378.288452 
	C312.055756,377.611176 312.035034,377.315186 312.393799,376.970215 
	C315.517639,375.612122 318.261993,374.303009 321.006348,372.993866 
	C321.006348,372.993866 321.400848,372.754974 321.615509,372.670593 
	C322.338806,373.476318 322.847443,374.366425 323.436035,375.555847 
z"/>
<path fill="#F1F7FA" opacity="1.000000" stroke="none" 
	d="
M184.979980,282.021820 
	C180.826370,272.035736 176.662476,262.053864 172.524918,252.061127 
	C171.141190,248.719223 169.866486,245.331177 168.413986,242.020340 
	C168.266174,241.683411 167.234589,241.734192 166.393524,241.768829 
	C157.529495,217.037186 148.885086,192.141754 140.114426,166.882690 
	C140.959885,166.523407 142.620377,165.817764 144.933960,164.856277 
	C152.388931,162.067917 159.190796,159.535400 165.995346,157.438538 
	C166.084076,159.362717 166.039017,160.872559 166.276962,162.336395 
	C168.154282,173.886902 170.104752,185.425507 171.995941,196.973801 
	C174.926117,214.866608 177.924149,232.749115 180.703537,250.665466 
	C182.320404,261.087891 183.566864,271.567780 184.979980,282.021820 
z"/>
<path fill="#F1F6FA" opacity="1.000000" stroke="none" 
	d="
M333.010559,115.134369 
	C324.470520,116.752625 315.956970,118.530586 307.384644,119.954445 
	C291.626160,122.571907 275.830078,124.962532 260.055695,127.485405 
	C253.228699,128.577286 246.423737,129.809601 239.587738,130.838440 
	C238.846191,130.950027 237.964584,130.130890 237.073990,129.374069 
	C258.760376,120.358986 280.517242,111.704521 302.283020,103.072487 
	C309.521393,100.201843 316.782593,97.388763 323.666962,94.692825 
	C325.987030,98.293602 328.098633,101.570831 330.590973,105.107880 
	C330.981537,105.579178 330.991364,105.790649 330.727203,106.218079 
	C331.305634,109.334145 332.158112,112.234261 333.010559,115.134369 
z"/>
<path fill="#DDEFF5" opacity="1.000000" stroke="none" 
	d="
M165.992676,157.002899 
	C159.190796,159.535400 152.388931,162.067917 145.274857,164.792084 
	C144.336365,161.601578 143.710083,158.219406 142.978882,154.270615 
	C150.308777,152.206741 157.793427,150.099304 165.564148,147.864014 
	C166.233231,150.536758 166.616257,153.337372 166.744751,156.568680 
	C166.490204,156.999374 165.992676,157.002899 165.992676,157.002899 
z"/>
<path fill="#DDEFF5" opacity="1.000000" stroke="none" 
	d="
M331.001221,106.002129 
	C330.991364,105.790649 330.981537,105.579178 330.953339,105.050583 
	C334.734467,103.511742 338.533936,102.290024 342.743134,100.936562 
	C343.581482,103.967209 344.307587,106.592239 344.772522,109.789398 
	C344.866241,110.884132 345.221191,111.406738 345.576172,111.929337 
	C346.158752,112.396591 346.741333,112.863846 347.599121,113.433144 
	C344.526093,114.019196 341.177856,114.503204 337.372559,114.612381 
	C334.987091,111.461540 336.740692,106.041252 331.001221,106.002129 
z"/>
<path fill="#FEFEFE" opacity="1.000000" stroke="none" 
	d="
M345.533813,111.592979 
	C345.221191,111.406738 344.866241,110.884132 344.751221,110.180939 
	C345.157898,110.419098 345.324677,110.837852 345.533813,111.592979 
z"/>
<path fill="#DDEFF5" opacity="1.000000" stroke="none" 
	d="
M334.475098,174.879913 
	C323.760193,176.540985 313.301666,177.972168 302.867889,179.565475 
	C284.760590,182.330566 266.667267,185.187607 248.571472,188.027603 
	C245.637711,188.488037 242.732803,189.143539 239.792130,189.544144 
	C238.308365,189.746277 236.774353,189.579453 235.263062,189.579453 
	C235.140671,189.065720 235.018295,188.551987 234.895905,188.038254 
	C236.673248,187.367966 238.398163,186.379639 240.236053,186.076599 
	C258.306885,183.097153 276.390259,180.191879 294.482819,177.346695 
	C308.338928,175.167694 322.213379,173.105453 336.502808,170.991333 
	C336.198151,172.235245 335.470367,173.479111 334.475098,174.879913 
z"/>
<path fill="#DDEFF5" opacity="1.000000" stroke="none" 
	d="
M326.621216,185.954895 
	C296.485474,190.864914 266.614258,195.611923 236.743057,200.358932 
	C236.559250,199.550735 236.375443,198.742523 236.191650,197.934326 
	C240.225677,196.966858 244.217896,195.743744 248.300934,195.075851 
	C266.707153,192.065018 285.130829,189.157700 303.565613,186.326416 
	C311.554321,185.099472 319.585083,184.146164 328.077332,183.120880 
	C328.000519,184.046082 327.443146,184.918976 326.621216,185.954895 
z"/>
<path fill="#DDEFF5" opacity="1.000000" stroke="none" 
	d="
M317.413025,197.909882 
	C303.441528,200.191650 289.737305,202.305176 276.045471,204.496368 
	C264.958313,206.270752 253.894272,208.191788 242.797546,209.902191 
	C241.296707,210.133514 239.664932,209.515320 238.093796,209.290482 
	C238.083786,208.731354 238.073792,208.172241 238.063797,207.613113 
	C242.294647,206.760269 246.503693,205.774277 250.760056,205.077209 
	C271.291107,201.714890 291.831085,198.406265 312.380371,195.157486 
	C314.327881,194.849609 316.362091,195.090271 318.820740,195.163696 
	C318.752167,196.092484 318.218903,196.933823 317.413025,197.909882 
z"/>
<path fill="#DDEFF5" opacity="1.000000" stroke="none" 
	d="
M334.371521,232.012421 
	C344.164215,230.430908 353.688751,228.988480 363.213318,227.546066 
	C363.355438,228.338974 363.497589,229.131882 363.639740,229.924805 
	C353.561035,232.534286 343.222778,233.924316 332.379639,235.025940 
	C332.658936,234.069611 333.381134,233.110580 334.371521,232.012421 
z"/>
<path fill="#DDEFF5" opacity="1.000000" stroke="none" 
	d="
M319.457336,195.190918 
	C319.363708,194.951553 319.536377,194.619278 319.990265,194.209595 
	C320.088837,194.454102 319.906219,194.776047 319.457336,195.190918 
z"/>
<path fill="#F1F6FA" opacity="1.000000" stroke="none" 
	d="
M312.014343,377.019226 
	C312.035034,377.315186 312.055756,377.611176 312.109192,378.351166 
	C286.344360,389.034454 260.546875,399.273773 234.612228,409.567505 
	C233.124741,406.293182 231.827072,403.436646 230.208649,400.020752 
	C228.934158,396.313477 227.980408,393.165619 227.467438,390.012695 
	C231.854156,389.629242 235.834778,389.466248 239.740387,388.837311 
	C263.841095,384.956299 287.924927,380.970337 312.014343,377.019226 
z"/>
<path fill="#DDEFF5" opacity="1.000000" stroke="none" 
	d="
M206.039093,392.387939 
	C206.068390,391.991119 206.516327,391.990723 207.112793,392.152466 
	C212.737839,392.314240 217.766434,392.314240 223.664108,392.314240 
	C225.662689,394.001465 223.952103,399.991943 229.569611,400.262695 
	C222.976700,402.196198 216.383789,404.129700 209.447327,406.163940 
	C208.213638,401.362335 207.111710,397.073547 206.039093,392.387939 
z"/>
<path fill="#D1E5EA" opacity="1.000000" stroke="none" 
	d="
M229.664825,400.310059 
	C223.952103,399.991943 225.662689,394.001465 223.664108,392.314240 
	C217.766434,392.314240 212.737839,392.314240 207.336761,392.150848 
	C207.565552,391.345459 208.094589,390.241791 208.779541,390.134613 
	C214.203262,389.286011 219.656693,388.627167 225.649902,388.185669 
	C226.474762,388.980164 226.750717,389.498962 227.026672,390.017761 
	C227.980408,393.165619 228.934158,396.313477 229.912170,399.849945 
	C229.936447,400.238556 229.760056,400.357391 229.664825,400.310059 
z"/>
<path fill="#057F82" opacity="1.000000" stroke="none" 
	d="
M381.094513,239.520767 
	C379.321259,234.719238 377.548004,229.917709 375.537537,224.834351 
	C373.912292,218.964264 372.524292,213.376022 371.156799,207.393738 
	C371.624420,207.189636 372.379395,207.282623 372.474121,207.583511 
	C375.833557,218.252899 379.131073,228.941742 381.964783,239.709976 
	C381.492279,239.792084 381.094513,239.520767 381.094513,239.520767 
z"/>
<path fill="#FEFDFD" opacity="1.000000" stroke="none" 
	d="
M381.100464,239.874237 
	C381.094513,239.520767 381.492279,239.792084 381.698792,239.915939 
	C381.969696,240.474548 382.034088,240.909302 382.048950,241.671646 
	C381.701721,241.408737 381.404053,240.818222 381.100464,239.874237 
z"/>
<path fill="#B4E1F2" opacity="1.000000" stroke="none" 
	d="
M290.240875,171.134995 
	C273.817596,173.800476 257.826660,176.387894 241.838501,178.992401 
	C240.370987,179.231461 238.808105,180.062759 237.492111,179.754395 
	C235.870483,179.374451 234.461319,178.087631 232.960327,177.192734 
	C234.081573,175.837082 235.017426,173.542786 236.354294,173.278702 
	C244.783478,171.613678 253.299911,170.388153 261.790863,169.038483 
	C277.465240,166.546982 293.141479,164.067352 308.817963,161.589005 
	C312.245728,161.047089 315.677185,160.172318 319.107849,160.168015 
	C320.628418,160.166107 322.151215,161.948776 323.673004,162.921356 
	C322.458405,164.016724 321.379639,165.833282 320.007446,166.091721 
	C310.263275,167.927063 300.459076,169.443527 290.240875,171.134995 
z"/>
<path fill="#83D4F1" opacity="1.000000" stroke="none" 
	d="
M214.347702,185.813522 
	C215.166397,190.373215 216.200592,194.911636 216.654495,199.507355 
	C216.770111,200.677917 215.232590,202.920731 214.133484,203.153320 
	C207.495514,204.558029 200.777908,205.626175 194.047806,206.508224 
	C193.154739,206.625259 191.333145,205.188614 191.140350,204.230316 
	C189.768570,197.411804 188.534088,190.550476 187.745361,183.646866 
	C187.632462,182.658813 190.007080,180.643829 191.481705,180.345322 
	C197.969208,179.032120 204.548889,178.174240 211.485382,177.450119 
	C211.400055,178.558289 210.924500,179.367691 210.014847,180.185669 
	C203.432022,181.245483 197.283279,182.296722 190.537598,183.450012 
	C191.546265,190.181305 192.489212,196.473953 193.547409,203.535736 
	C196.774170,202.974457 199.632355,202.477280 202.834595,202.006897 
	C204.087738,201.948990 204.996811,201.864258 206.159744,201.749084 
	C206.608810,201.462692 206.804016,201.206741 206.997833,200.977951 
	C206.996445,201.005096 206.949005,200.978516 207.384384,201.063751 
	C209.822433,200.957153 211.825104,200.765335 214.000015,200.557007 
	C213.471008,196.394180 213.023590,192.873459 212.680573,189.029144 
	C213.305862,187.741531 213.826782,186.777527 214.347702,185.813522 
z"/>
<path fill="#83D4F1" opacity="1.000000" stroke="none" 
	d="
M223.749146,245.473465 
	C224.495651,249.715317 225.226852,253.959930 225.994049,258.198029 
	C226.503571,261.012695 225.622406,262.508148 222.533951,262.903473 
	C216.619583,263.660553 210.733459,264.669403 204.862869,265.725281 
	C201.663101,266.300781 200.390991,265.204895 200.019653,261.938843 
	C199.383865,256.346985 198.400909,250.785049 197.330612,245.255676 
	C196.685318,241.922058 197.158447,239.947098 201.088852,239.511353 
	C207.510468,238.799362 213.888504,237.694229 220.683990,237.113388 
	C220.704163,238.064697 220.325272,238.657578 219.730591,239.310547 
	C219.210083,239.508911 219.047638,239.745178 219.033661,240.042694 
	C219.039871,240.005981 219.087448,240.063248 218.651245,239.989182 
	C212.224960,240.739822 206.234863,241.564529 199.740692,242.458633 
	C200.933319,249.546890 202.040314,256.126221 203.195541,262.992218 
	C206.730865,262.398468 209.774353,261.887329 213.171021,261.341553 
	C214.219498,261.166748 214.914780,261.026642 216.043274,260.905670 
	C218.553604,260.519531 220.630722,260.114227 223.339722,259.585663 
	C222.813171,255.926392 222.329102,252.562347 221.909088,248.850128 
	C222.565140,247.492447 223.157150,246.482956 223.749146,245.473465 
z"/>
<path fill="#F9A228" opacity="1.000000" stroke="none" 
	d="
M214.495773,185.465088 
	C213.826782,186.777527 213.305862,187.741531 212.482239,189.234741 
	C210.436005,193.502136 208.692505,197.240326 206.949005,200.978516 
	C206.949005,200.978516 206.996445,201.005096 206.748230,201.005676 
	C206.186722,201.175537 205.988693,201.433289 205.905884,201.779541 
	C204.996811,201.864258 204.087738,201.948990 202.631622,201.707703 
	C199.742554,199.036743 197.232941,196.827637 195.157288,194.266785 
	C194.506943,193.464417 195.025208,191.714844 195.008575,190.398834 
	C196.336075,190.387589 197.917664,189.913437 198.933090,190.470779 
	C200.561905,191.364792 201.815948,192.941620 203.478882,194.458344 
	C205.955917,189.383057 208.202438,184.780075 210.448944,180.177078 
	C210.924500,179.367691 211.400055,178.558289 211.895416,177.471283 
	C213.483139,176.867447 215.051025,176.541214 216.618927,176.214981 
	C216.616760,177.850876 216.868607,179.540588 216.536926,181.106689 
	C216.238922,182.513885 215.300018,183.785339 214.495773,185.465088 
z"/>
<path fill="#E4ECF1" opacity="1.000000" stroke="none" 
	d="
M165.995346,157.438538 
	C165.992676,157.002899 166.490204,156.999374 166.738831,156.997864 
	C169.320358,170.847366 171.694199,184.691635 173.976028,198.551071 
	C176.955887,216.650192 179.908798,234.753998 182.784607,252.869873 
	C184.598419,264.295685 186.250061,275.747253 187.951721,287.611115 
	C187.281021,286.957031 186.633072,285.879089 185.973022,284.123230 
	C185.634033,282.966553 185.307144,282.487823 184.980255,282.009094 
	C184.980240,282.009094 184.995697,282.001556 184.987854,282.011688 
	C183.566864,271.567780 182.320404,261.087891 180.703537,250.665466 
	C177.924149,232.749115 174.926117,214.866608 171.995941,196.973801 
	C170.104752,185.425507 168.154282,173.886902 166.276962,162.336395 
	C166.039017,160.872559 166.084076,159.362717 165.995346,157.438538 
z"/>
<path fill="#F9A228" opacity="1.000000" stroke="none" 
	d="
M223.831680,245.143433 
	C223.157150,246.482956 222.565140,247.492447 221.657471,249.042633 
	C219.431198,253.351074 217.520615,257.118805 215.610046,260.886536 
	C214.914780,261.026642 214.219498,261.166748 212.878952,261.170502 
	C210.069733,258.987213 207.652664,257.137512 205.842545,254.814819 
	C204.853973,253.546341 204.892990,251.477036 204.468582,249.768875 
	C206.161591,250.077225 207.949402,250.148087 209.515793,250.773544 
	C210.647476,251.225433 211.484848,252.414352 213.135101,253.879913 
	C215.239853,248.994324 217.163651,244.528793 219.087448,240.063248 
	C219.087448,240.063248 219.039871,240.005981 219.292755,240.093414 
	C219.679199,239.870712 219.812790,239.560577 219.946381,239.250458 
	C220.325272,238.657578 220.704163,238.064697 221.144531,237.114746 
	C222.853287,236.371170 224.500580,235.984665 226.147873,235.598160 
	C226.102005,237.214676 226.310913,238.892914 225.938522,240.430328 
	C225.566849,241.964783 224.612869,243.358185 223.831680,245.143433 
z"/>
<path fill="#D1E5EA" opacity="1.000000" stroke="none" 
	d="
M330.727203,106.218079 
	C336.740692,106.041252 334.987091,111.461540 336.952271,114.608955 
	C335.927643,115.012260 334.866333,115.044167 333.407776,115.105225 
	C332.158112,112.234261 331.305634,109.334145 330.727203,106.218079 
z"/>
<path fill="#E4ECF1" opacity="1.000000" stroke="none" 
	d="
M227.467438,390.012695 
	C226.750717,389.498962 226.474762,388.980164 226.097549,388.183533 
	C234.871063,386.273865 243.724075,384.510223 252.625443,383.039307 
	C268.399902,380.432617 284.194092,377.940430 299.999878,375.530548 
	C306.676910,374.512482 313.404266,373.824402 320.557556,372.990112 
	C318.261993,374.303009 315.517639,375.612122 312.393799,376.970215 
	C287.924927,380.970337 263.841095,384.956299 239.740387,388.837311 
	C235.834778,389.466248 231.854156,389.629242 227.467438,390.012695 
z"/>
<path fill="#83D4F1" opacity="1.000000" stroke="none" 
	d="
M289.525787,362.738159 
	C272.716705,365.355408 256.323792,367.926819 239.922104,370.441071 
	C237.531799,370.807495 235.099640,370.901001 232.686844,371.120789 
	C232.523285,370.601715 232.359711,370.082672 232.196136,369.563629 
	C233.570084,368.961334 234.891312,368.048889 236.326187,367.804993 
	C249.903152,365.497314 263.497009,363.288116 277.091492,361.084686 
	C282.168976,360.261719 287.254822,359.483185 292.351349,358.790985 
	C293.444946,358.642456 294.601044,358.954651 295.728363,359.054626 
	C295.810242,359.621613 295.892120,360.188629 295.973999,360.755615 
	C293.962372,361.395050 291.950745,362.034485 289.525787,362.738159 
z"/>
<path fill="#F1F7FA" opacity="1.000000" stroke="none" 
	d="
M184.997589,282.312988 
	C185.307144,282.487823 185.634033,282.966553 185.976273,283.753571 
	C185.666046,283.580200 185.340469,283.098511 184.997589,282.312988 
z"/>
<path fill="#FEFDFD" opacity="1.000000" stroke="none" 
	d="
M407.985626,261.832855 
	C410.526337,262.478577 413.091980,263.039978 415.603912,263.782990 
	C442.678589,271.791473 458.965454,289.776978 464.976562,317.962524 
	C465.165955,319.522461 465.344543,320.370300 465.523132,321.218170 
	C465.646515,322.556183 465.769867,323.894165 465.927887,326.043701 
	C466.011963,328.566711 466.061401,330.278168 466.110870,331.989655 
	C465.987335,333.053345 465.863800,334.117004 465.660400,335.907776 
	C465.450867,338.084656 465.321228,339.534485 465.191589,340.984314 
	C461.733887,349.404663 458.276184,357.825043 454.417908,366.159210 
	C453.310181,365.963257 452.457611,365.540070 451.917542,365.790619 
	C443.118927,369.871796 434.359833,374.038269 425.369171,377.978973 
	C424.220825,377.864105 423.295135,377.955780 421.918518,378.041809 
	C415.746185,378.045502 409.936157,378.711761 404.318390,377.953461 
	C376.117218,374.146851 357.374664,358.515594 347.713348,331.785217 
	C347.136566,330.189331 345.374664,329.021759 344.145874,327.411560 
	C344.146515,326.843048 344.186127,326.520386 344.626251,326.028625 
	C345.002960,318.388397 344.922729,310.918457 345.051239,303.452179 
	C345.083099,301.601166 345.791504,299.761810 346.514465,298.005280 
	C348.904663,298.320618 350.127563,302.258911 353.278961,299.336365 
	C350.703064,297.500641 348.329193,295.808899 346.092957,293.779541 
	C347.169098,289.660126 348.107574,285.878265 349.046051,282.096405 
	C357.802856,273.392609 368.212982,267.507629 379.989197,263.955261 
	C381.092194,263.622528 382.206573,263.327667 383.979401,262.906311 
	C385.434875,262.558197 386.226593,262.319031 387.018341,262.079895 
	C387.467621,262.084412 387.916870,262.088898 389.086548,262.048157 
	C391.605682,261.811890 393.404449,261.620911 395.203217,261.429901 
	C396.851440,261.423676 398.499695,261.417450 400.914154,261.440369 
	C403.782135,261.590607 405.883881,261.711731 407.985626,261.832855 
M388.793976,337.686859 
	C389.357056,337.519531 389.920135,337.352203 391.059357,337.080658 
	C391.711090,336.659454 392.362823,336.238251 393.707886,335.966064 
	C401.108521,338.917847 405.038849,336.592194 407.383057,328.013550 
	C413.714294,324.082947 420.090515,320.222382 426.360565,316.196411 
	C430.345520,313.637634 434.172699,310.833099 438.668884,307.831329 
	C439.401733,306.376434 441.126373,304.505981 440.717255,303.529541 
	C435.397339,290.831604 414.784424,278.898712 400.641022,280.031281 
	C400.498322,280.313568 400.239807,280.591705 400.229553,280.878723 
	C399.754700,294.164490 399.301483,307.451050 398.401306,320.608673 
	C392.257568,322.393433 390.508636,324.416931 390.847046,329.435425 
	C390.847046,329.435425 390.928284,329.505646 390.153381,329.388916 
	C388.700256,330.295624 387.247101,331.202332 386.573944,331.622375 
	C387.447784,333.700012 388.143250,335.353577 388.793976,337.686859 
M447.065674,361.528870 
	C448.692261,362.320312 450.318848,363.111755 451.945435,363.903198 
	C452.229675,363.316223 452.513947,362.729279 452.798218,362.142303 
	C451.053680,361.027924 449.382019,359.765625 447.536377,358.856445 
	C446.484772,358.338379 445.149231,358.396759 443.941559,358.195526 
	C444.800171,359.173553 445.658783,360.151581 447.065674,361.528870 
M399.290222,269.689148 
	C399.429596,271.486389 399.568939,273.283600 399.708313,275.080841 
	C400.288208,275.029663 400.868103,274.978485 401.447998,274.927307 
	C401.447998,271.711090 401.447998,268.494873 401.447998,265.278625 
	C401.018433,265.214264 400.588867,265.149902 400.159332,265.085541 
	C399.888062,266.335571 399.616760,267.585571 399.290222,269.689148 
M453.227386,332.729065 
	C456.159882,332.729065 459.092407,332.729065 462.024902,332.729065 
	C462.079681,332.012726 462.134460,331.296387 462.189209,330.580048 
	C459.660126,330.402435 457.124725,330.058533 454.605927,330.153625 
	C453.896667,330.180359 453.235992,331.494537 453.227386,332.729065 
M451.462341,299.791229 
	C449.527100,300.810822 447.591858,301.830414 445.656616,302.850006 
	C445.984528,303.512756 446.312439,304.175507 446.640381,304.838257 
	C449.528229,303.433594 452.416107,302.028931 455.303955,300.624268 
	C455.159149,300.118042 455.014343,299.611786 454.869537,299.105560 
	C453.950562,299.194855 453.031616,299.284149 451.462341,299.791229 
M369.154724,276.378540 
	C370.321289,278.077545 371.487823,279.776581 372.654388,281.475586 
	C373.182953,281.104218 373.711517,280.732819 374.240082,280.361450 
	C372.687531,277.592529 371.134949,274.823608 369.582397,272.054688 
	C369.072479,272.255829 368.562561,272.457001 368.052612,272.658173 
	C368.325806,273.665924 368.599030,274.673706 369.154724,276.378540 
z"/>
<path fill="#EFEDED" opacity="1.000000" stroke="none" 
	d="
M348.714844,282.187805 
	C348.107574,285.878265 347.169098,289.660126 345.767639,293.818695 
	C342.075897,296.273071 345.771851,296.705566 346.188873,297.917084 
	C345.791504,299.761810 345.083099,301.601166 345.051239,303.452179 
	C344.922729,310.918457 345.002960,318.388397 344.346588,325.804626 
	C340.587402,325.752289 337.487762,325.752289 334.388092,325.752289 
	C334.404633,326.386505 334.421173,327.020691 334.437714,327.654907 
	C337.679871,327.654907 340.922058,327.654907 344.164215,327.654907 
	C345.374664,329.021759 347.136566,330.189331 347.713348,331.785217 
	C357.374664,358.515594 376.117218,374.146851 404.318390,377.953461 
	C409.936157,378.711761 415.746185,378.045502 422.082336,378.323730 
	C424.164490,381.122833 425.631897,383.634369 427.099274,386.145874 
	C427.634979,385.869720 428.170715,385.593536 428.706421,385.317352 
	C427.668243,382.940063 426.630066,380.562805 425.591858,378.185516 
	C434.359833,374.038269 443.118927,369.871796 451.917542,365.790619 
	C452.457611,365.540070 453.310181,365.963257 454.151978,366.408905 
	C444.080322,383.580383 428.185791,391.708801 408.964661,396.005432 
	C406.475250,396.389282 404.722076,396.639771 402.968933,396.890259 
	C399.958740,396.820923 396.948547,396.751587 393.075684,396.603821 
	C390.733673,396.431396 389.254364,396.337341 387.775055,396.243286 
	C381.872864,394.661102 375.493500,394.002716 370.189362,391.262756 
	C363.567780,387.842255 357.510071,383.086670 351.785217,378.228363 
	C342.176300,370.073944 336.327209,359.285248 333.060730,347.277252 
	C327.843201,328.097107 330.523499,309.877106 341.059723,292.943665 
	C343.335632,289.285950 345.933899,285.828766 348.714844,282.187805 
M364.016113,382.949524 
	C366.179749,380.626770 368.343384,378.304016 370.506989,375.981262 
	C369.806885,375.432281 369.106812,374.883331 368.406708,374.334351 
	C366.764618,377.044220 365.122559,379.754089 364.016113,382.949524 
z"/>
<path fill="#101010" opacity="1.000000" stroke="none" 
	d="
M466.468903,331.913208 
	C466.061401,330.278168 466.011963,328.566711 466.035278,326.432678 
	C469.336700,327.583557 468.342712,329.677979 466.468903,331.913208 
z"/>
<path fill="#101010" opacity="1.000000" stroke="none" 
	d="
M407.892914,261.468781 
	C405.883881,261.711731 403.782135,261.590607 401.313293,261.333740 
	C403.230896,261.166840 405.515533,261.135773 407.892914,261.468781 
z"/>
<path fill="#101010" opacity="1.000000" stroke="none" 
	d="
M394.992676,261.088043 
	C393.404449,261.620911 391.605682,261.811890 389.408936,261.939545 
	C390.934662,261.499542 392.858398,261.122864 394.992676,261.088043 
z"/>
<path fill="#101010" opacity="1.000000" stroke="none" 
	d="
M465.536804,340.902771 
	C465.321228,339.534485 465.450867,338.084656 465.733765,336.304169 
	C465.885345,337.589417 465.883698,339.205292 465.536804,340.902771 
z"/>
<path fill="#101010" opacity="1.000000" stroke="none" 
	d="
M403.193237,397.192810 
	C404.722076,396.639771 406.475250,396.389282 408.605408,396.169189 
	C407.127472,396.631500 405.272491,397.063416 403.193237,397.192810 
z"/>
<path fill="#101010" opacity="1.000000" stroke="none" 
	d="
M465.838379,321.055847 
	C465.344543,320.370300 465.165955,319.522461 465.063690,318.343292 
	C465.477905,318.972504 465.815765,319.933014 465.838379,321.055847 
z"/>
<path fill="#101010" opacity="1.000000" stroke="none" 
	d="
M387.944702,396.628937 
	C389.254364,396.337341 390.733673,396.431396 392.630219,396.679565 
	C391.403076,396.894012 389.758728,396.954285 387.944702,396.628937 
z"/>
<path fill="#101010" opacity="1.000000" stroke="none" 
	d="
M386.852844,261.810791 
	C386.226593,262.319031 385.434875,262.558197 384.331604,262.753113 
	C384.909210,262.319794 385.798309,261.930725 386.852844,261.810791 
z"/>
<path fill="#FEFDFD" opacity="1.000000" stroke="none" 
	d="
M210.014862,180.185669 
	C208.202438,184.780075 205.955917,189.383057 203.478882,194.458344 
	C201.815948,192.941620 200.561905,191.364792 198.933090,190.470779 
	C197.917664,189.913437 196.336075,190.387589 195.008575,190.398834 
	C195.025208,191.714844 194.506943,193.464417 195.157288,194.266785 
	C197.232941,196.827637 199.742554,199.036743 202.287567,201.680893 
	C199.632355,202.477280 196.774170,202.974457 193.547409,203.535736 
	C192.489212,196.473953 191.546265,190.181305 190.537598,183.450012 
	C197.283279,182.296722 203.432022,181.245483 210.014862,180.185669 
z"/>
<path fill="#F1F7FA" opacity="1.000000" stroke="none" 
	d="
M207.384369,201.063751 
	C208.692505,197.240326 210.436005,193.502136 212.377853,189.558350 
	C213.023590,192.873459 213.471008,196.394180 214.000015,200.557007 
	C211.825104,200.765335 209.822433,200.957153 207.384369,201.063751 
z"/>
<path fill="#F1F7FA" opacity="1.000000" stroke="none" 
	d="
M206.159744,201.749084 
	C205.988693,201.433289 206.186722,201.175537 206.749603,200.978546 
	C206.804016,201.206741 206.608810,201.462692 206.159744,201.749084 
z"/>
<path fill="#FAFAF8" opacity="1.000000" stroke="none" 
	d="
M218.651245,239.989182 
	C217.163651,244.528793 215.239853,248.994324 213.135101,253.879913 
	C211.484848,252.414352 210.647476,251.225433 209.515793,250.773544 
	C207.949402,250.148087 206.161591,250.077225 204.468582,249.768875 
	C204.892990,251.477036 204.853973,253.546341 205.842545,254.814819 
	C207.652664,257.137512 210.069733,258.987213 212.525757,261.205200 
	C209.774353,261.887329 206.730865,262.398468 203.195541,262.992218 
	C202.040314,256.126221 200.933319,249.546890 199.740692,242.458633 
	C206.234863,241.564529 212.224960,240.739822 218.651245,239.989182 
z"/>
<path fill="#FAFAF8" opacity="1.000000" stroke="none" 
	d="
M216.043274,260.905670 
	C217.520615,257.118805 219.431198,253.351074 221.593414,249.390839 
	C222.329102,252.562347 222.813171,255.926392 223.339722,259.585663 
	C220.630722,260.114227 218.553604,260.519531 216.043274,260.905670 
z"/>
<path fill="#FAFAF8" opacity="1.000000" stroke="none" 
	d="
M219.730591,239.310547 
	C219.812790,239.560577 219.679199,239.870712 219.286545,240.130112 
	C219.047638,239.745178 219.210083,239.508911 219.730591,239.310547 
z"/>
<path fill="#ED1D3A" opacity="1.000000" stroke="none" 
	d="
M398.845764,320.737488 
	C399.301483,307.451050 399.754700,294.164490 400.229553,280.878723 
	C400.239807,280.591705 400.498322,280.313568 400.647278,280.034424 
	C414.784424,278.898712 435.397339,290.831604 440.717255,303.529541 
	C441.126373,304.505981 439.401733,306.376434 437.987061,307.894226 
	C427.721985,312.100250 418.078613,316.112183 408.587677,320.457001 
	C405.217133,322.000031 402.159302,322.750183 398.845764,320.737488 
z"/>
<path fill="#222020" opacity="1.000000" stroke="none" 
	d="
M398.623535,320.673096 
	C402.159302,322.750183 405.217133,322.000031 408.587677,320.457001 
	C418.078613,316.112183 427.721985,312.100250 437.687927,308.047913 
	C434.172699,310.833099 430.345520,313.637634 426.360565,316.196411 
	C420.090515,320.222382 413.714294,324.082947 406.507324,328.045227 
	C404.860168,328.053894 404.088776,328.030884 403.176208,327.731750 
	C399.081696,322.901825 397.256683,322.923309 393.303101,327.442566 
	C392.617950,328.225739 391.642670,328.755096 390.801392,329.401672 
	C390.508636,324.416931 392.257568,322.393433 398.623535,320.673096 
z"/>
<path fill="#EFEDED" opacity="1.000000" stroke="none" 
	d="
M390.824219,329.418549 
	C391.642670,328.755096 392.617950,328.225739 393.303101,327.442566 
	C397.256683,322.923309 399.081696,322.901825 403.141571,328.082123 
	C401.925293,334.903046 398.935455,335.783447 393.144409,331.298950 
	C392.422760,330.439636 391.675507,329.972656 390.928284,329.505646 
	C390.928284,329.505646 390.847046,329.435425 390.824219,329.418549 
z"/>
<path fill="#101010" opacity="1.000000" stroke="none" 
	d="
M393.118835,331.691284 
	C398.935455,335.783447 401.925293,334.903046 403.282715,328.358215 
	C404.088776,328.030884 404.860168,328.053894 406.205841,328.153992 
	C405.038849,336.592194 401.108521,338.917847 393.356049,335.478455 
	C393.042419,333.890991 393.080627,332.791138 393.118835,331.691284 
z"/>
<path fill="#282727" opacity="1.000000" stroke="none" 
	d="
M446.791504,361.329224 
	C445.658783,360.151581 444.800171,359.173553 443.941559,358.195526 
	C445.149231,358.396759 446.484772,358.338379 447.536377,358.856445 
	C449.382019,359.765625 451.053680,361.027924 452.798218,362.142303 
	C452.513947,362.729279 452.229675,363.316223 451.945435,363.903198 
	C450.318848,363.111755 448.692261,362.320312 446.791504,361.329224 
z"/>
<path fill="#222020" opacity="1.000000" stroke="none" 
	d="
M393.144409,331.298950 
	C393.080627,332.791138 393.042419,333.890991 393.009399,335.403931 
	C392.362823,336.238251 391.711090,336.659454 390.361176,337.078308 
	C389.388275,337.053070 389.113525,337.030121 388.838745,337.007172 
	C388.143250,335.353577 387.447784,333.700012 386.573944,331.622375 
	C387.247101,331.202332 388.700256,330.295624 390.540833,329.447266 
	C391.675507,329.972656 392.422760,330.439636 393.144409,331.298950 
z"/>
<path fill="#373434" opacity="1.000000" stroke="none" 
	d="
M344.145874,327.411560 
	C340.922058,327.654907 337.679871,327.654907 334.437714,327.654907 
	C334.421173,327.020691 334.404633,326.386505 334.388092,325.752289 
	C337.487762,325.752289 340.587402,325.752289 343.966736,325.976257 
	C344.186127,326.520386 344.146515,326.843048 344.145874,327.411560 
z"/>
<path fill="#282727" opacity="1.000000" stroke="none" 
	d="
M346.514465,298.005280 
	C345.771851,296.705566 342.075897,296.273071 345.630005,294.156250 
	C348.329193,295.808899 350.703064,297.500641 353.278961,299.336365 
	C350.127563,302.258911 348.904663,298.320618 346.514465,298.005280 
z"/>
<path fill="#373434" opacity="1.000000" stroke="none" 
	d="
M399.317871,269.262390 
	C399.616760,267.585571 399.888062,266.335571 400.159332,265.085541 
	C400.588867,265.149902 401.018433,265.214264 401.447998,265.278625 
	C401.447998,268.494873 401.447998,271.711090 401.447998,274.927307 
	C400.868103,274.978485 400.288208,275.029663 399.708313,275.080841 
	C399.568939,273.283600 399.429596,271.486389 399.317871,269.262390 
z"/>
<path fill="#373434" opacity="1.000000" stroke="none" 
	d="
M452.890198,332.473633 
	C453.235992,331.494537 453.896667,330.180359 454.605927,330.153625 
	C457.124725,330.058533 459.660126,330.402435 462.189209,330.580048 
	C462.134460,331.296387 462.079681,332.012726 462.024902,332.729065 
	C459.092407,332.729065 456.159882,332.729065 452.890198,332.473633 
z"/>
<path fill="#282727" opacity="1.000000" stroke="none" 
	d="
M451.787476,299.582336 
	C453.031616,299.284149 453.950562,299.194855 454.869537,299.105560 
	C455.014343,299.611786 455.159149,300.118042 455.303955,300.624268 
	C452.416107,302.028931 449.528229,303.433594 446.640381,304.838257 
	C446.312439,304.175507 445.984528,303.512756 445.656616,302.850006 
	C447.591858,301.830414 449.527100,300.810822 451.787476,299.582336 
z"/>
<path fill="#282727" opacity="1.000000" stroke="none" 
	d="
M425.369171,377.978973 
	C426.630066,380.562805 427.668243,382.940063 428.706421,385.317352 
	C428.170715,385.593536 427.634979,385.869720 427.099274,386.145874 
	C425.631897,383.634369 424.164490,381.122833 422.533295,378.329407 
	C423.295135,377.955780 424.220825,377.864105 425.369171,377.978973 
z"/>
<path fill="#282727" opacity="1.000000" stroke="none" 
	d="
M369.013489,276.030029 
	C368.599030,274.673706 368.325806,273.665924 368.052612,272.658173 
	C368.562561,272.457001 369.072479,272.255829 369.582397,272.054688 
	C371.134949,274.823608 372.687531,277.592529 374.240082,280.361450 
	C373.711517,280.732819 373.182953,281.104218 372.654388,281.475586 
	C371.487823,279.776581 370.321289,278.077545 369.013489,276.030029 
z"/>
<path fill="#282727" opacity="1.000000" stroke="none" 
	d="
M388.816345,337.347015 
	C389.113525,337.030121 389.388275,337.053070 390.073120,337.130432 
	C389.920135,337.352203 389.357056,337.519531 388.816345,337.347015 
z"/>
<path fill="#282727" opacity="1.000000" stroke="none" 
	d="
M363.748291,382.706726 
	C365.122559,379.754089 366.764618,377.044220 368.406708,374.334351 
	C369.106812,374.883331 369.806885,375.432281 370.506989,375.981262 
	C368.343384,378.304016 366.179749,380.626770 363.748291,382.706726 
z"/>
</svg>